# xmcd CD database file
# Generated: Sat Aug 24 17:11:28 2002 by KSCD
# 
# Track frame offsets:
#       150
#       9721
#       18617
#       26936
#       36508
#       45411
#       55771
#
# Disc length: 869 seconds
#
# Revision: 1
# Processed by: cddbd v1.4PL0 Copyright (c) Steve Scherf et al.
# Submitted via: Kscd 1.3.3
#
DISCID=58036307
DTITLE=Band In A Box - Bluegrass Practice Tracks
DYEAR=1900
DGENRE=
TTITLE0=Blueridge Cabin Home 60bpm
TTITLE1=Blueridge Cabin Home 65bpm
TTITLE2=Blueridge Cabin Home 70bpm
TTITLE3=Foggy Mountain Breakdown 60bpm
TTITLE4=Foggy Mountain Breakdown 70bpm
TTITLE5=Old Joe Clark 60bpm
TTITLE6=Old Joe Clark 65bpm
EXTD=
EXTT0=
EXTT1=
EXTT2=
EXTT3=
EXTT4=
EXTT5=
EXTT6=
PLAYORDER=
